<svg xmlns="http://www.w3.org/2000/svg">
  <symbol id="up-arrow-green" viewBox="0 0 16 16">
    <svg width="16" height="16" viewBox="0 0 16 16" fill="none" xmlns="http://www.w3.org/2000/svg">
      <path d="M3 7L8 2L13 7" stroke="#83BF6E" stroke-width="2" stroke-linecap="round" stroke-linejoin="round"/>
      <path d="M8 14V2" stroke="#83BF6E" stroke-width="2" stroke-linecap="round"/>
    </svg>
  </symbol>
  <symbol id="down-arrow-orange" viewBox="0 0 16 16">    
    <svg width="12" height="14" viewBox="0 0 12 14" fill="none" xmlns="http://www.w3.org/2000/svg">
      <path d="M11 8L6 13L1 8" stroke="#FF6A55" stroke-width="2" stroke-linecap="round" stroke-linejoin="round"/>
      <path d="M6 0.999999L6 13" stroke="#FF6A55" stroke-width="2" stroke-linecap="round"/>
    </svg>
  </symbol>
  <symbol id="down-arrow-gray" viewBox="0 0 26 31">
    <svg width="26" height="31" viewBox="0 0 26 31" fill="none" xmlns="http://www.w3.org/2000/svg">
      <path d="M14.6667 1.66667C14.6667 0.746192 13.9205 0 13 0C12.0795 0 11.3333 0.746192 11.3333 1.66667V25.143L3.34518 17.1548C2.6943 16.504 1.63903 16.504 0.988156 17.1548C0.337281 17.8057 0.337281 18.861 0.988156 19.5118L10.643 29.1667C11.9447 30.4684 14.0553 30.4684 15.357 29.1667L25.0119 19.5118C25.6627 18.861 25.6627 17.8057 25.0119 17.1548C24.361 16.504 23.3057 16.504 22.6548 17.1548L14.6667 25.143V1.66667Z" fill="#6F767E"/>
    </svg>
  </symbol>
  <symbol id="up-arrow-gray" viewBox="0 0 26 31">
    <svg width="26" height="31" viewBox="0 0 26 31" fill="none" xmlns="http://www.w3.org/2000/svg">
      <path d="M3.34518 13.8451C2.6943 14.496 1.63903 14.496 0.988156 13.8451C0.337281 13.1942 0.337281 12.1389 0.988156 11.4881L10.643 1.83324C11.9447 0.531498 14.0553 0.531495 15.357 1.83324L25.0119 11.4881C25.6627 12.1389 25.6627 13.1942 25.0119 13.8451C24.361 14.496 23.3057 14.496 22.6548 13.8451L14.6667 5.85694V29.3332C14.6667 30.2537 13.9205 30.9999 13 30.9999C12.0795 30.9999 11.3333 30.2537 11.3333 29.3332V5.85693L3.34518 13.8451Z" fill="#6F767E"/>
    </svg>
  </symbol>
  <symbol id="right-arrow-gray" viewBox="0 0 19 16">
    <svg width="19" height="16" viewBox="0 0 19 16" fill="none" xmlns="http://www.w3.org/2000/svg">
      <path d="M10.2929 13.7929C9.90237 14.1834 9.90237 14.8166 10.2929 15.2071C10.6834 15.5976 11.3166 15.5976 11.7071 15.2071L17.5 9.41421C18.281 8.63317 18.281 7.36684 17.5 6.58579L11.7071 0.792894C11.3166 0.402369 10.6834 0.402369 10.2929 0.792894C9.90237 1.18342 9.90237 1.81658 10.2929 2.20711L15.0858 7H1C0.447715 7 0 7.44772 0 8C0 8.55229 0.447715 9 1 9H15.0858L10.2929 13.7929Z" fill="#FCFCFC"/>
    </svg>
  </symbol>
  <symbol id="left-arrow-gray" viewBox="0 0 19 16">
    <svg width="19" height="16" viewBox="0 0 19 16" fill="none" xmlns="http://www.w3.org/2000/svg">
      <path d="M8.70708 13.7929C9.0976 14.1834 9.0976 14.8166 8.70708 15.2071C8.31655 15.5976 7.68339 15.5976 7.29286 15.2071L1.49997 9.41421C0.718923 8.63317 0.718921 7.36684 1.49997 6.58579L7.29286 0.792894C7.68339 0.402369 8.31655 0.402369 8.70708 0.792894C9.0976 1.18342 9.0976 1.81658 8.70708 2.20711L3.91419 7H18C18.5523 7 19 7.44772 19 8C19 8.55229 18.5523 9 18 9H3.91418L8.70708 13.7929Z" fill="#6F767E"/>
    </svg>
  </symbol>
  <symbol id="browser-connect" viewBox="0 0 26 24">
    <svg
      width="26"
      height="24"
      viewBox="0 0 26 24"
      fill="none"
      xmlns="http://www.w3.org/2000/svg"
    >
      <path
        d="M4.3335 0C2.12516 0 0.333496 1.77083 0.333496 3.97917V20C0.333496 22.1944 2.13905 24 4.3335 24H21.6668C23.8613 24 25.6668 22.1944 25.6668 20V3.97917C25.6668 1.77083 23.8752 0 21.6668 0H4.3335ZM18.6668 2.64583C19.2189 2.64583 19.6668 3.09375 19.6668 3.64583C19.6668 4.19792 19.2189 4.64583 18.6668 4.64583C18.1147 4.64583 17.6668 4.20139 17.6668 3.64583C17.6668 3.09375 18.1147 2.64583 18.6668 2.64583ZM22.0002 2.64583C22.5522 2.64583 23.0002 3.09375 23.0002 3.64583C23.0002 4.19792 22.5522 4.64583 22.0002 4.64583C21.4481 4.64583 21.0002 4.20139 21.0002 3.64583C21.0002 3.09375 21.4481 2.64583 22.0002 2.64583ZM3.00016 7.3125H23.0002V20C23.0002 20.7535 22.4203 21.3333 21.6668 21.3333H4.3335C3.58002 21.3333 3.00016 20.7535 3.00016 20V7.3125Z"
        fill="white"
      />
    </svg>
  </symbol>
  <symbol id="wallet-connect" viewBox="0 0 26 24">
    <svg
      width="32"
      height="18"
      viewBox="0 0 32 18"
      fill="none"
      xmlns="http://www.w3.org/2000/svg"
    >
      <path
        d="M6.85036 3.51509C11.9051 -1.1743 20.1029 -1.1743 25.1576 3.51509L25.7655 4.0757C26.0214 4.31055 26.0214 4.68933 25.7655 4.92418L23.686 6.856C23.558 6.96964 23.3581 6.96964 23.2301 6.856L22.3904 6.0757C18.8633 2.80297 13.1447 2.80297 9.61765 6.0757L8.72188 6.90903C8.59391 7.02267 8.39396 7.02267 8.266 6.90903L6.17853 4.98479C5.9226 4.74994 5.9226 4.37115 6.17853 4.1363L6.85036 3.51509ZM29.4605 7.50752L31.316 9.22721C31.572 9.46206 31.572 9.84085 31.316 10.0757L22.9582 17.8257C22.7023 18.0605 22.2944 18.0605 22.0464 17.8257L16.12 12.3257C16.056 12.2651 15.952 12.2651 15.888 12.3257L9.96156 17.8257C9.70562 18.0605 9.29773 18.0605 9.04979 17.8257L0.69195 10.0757C0.436017 9.84085 0.436017 9.46206 0.69195 9.22721L2.54747 7.50752C2.80341 7.27267 3.2113 7.27267 3.45924 7.50752L9.38571 13.0075C9.44969 13.0681 9.55366 13.0681 9.61765 13.0075L15.5441 7.50752C15.8001 7.27267 16.2079 7.27267 16.4559 7.50752L22.3824 13.0075C22.4463 13.0681 22.5503 13.0681 22.6143 13.0075L28.5408 7.50752C28.7967 7.27267 29.2046 7.27267 29.4605 7.50752Z"
        fill="#3B99FC"
      />
    </svg>
  </symbol>
  <symbol id="coinbase" viewBox="0 0 25 24">
    <svg
      width="25"
      height="24"
      viewBox="0 0 25 24"
      fill="none"
      xmlns="http://www.w3.org/2000/svg"
    >
      <g clipPath="url(#clip0_1584_4166)">
        <path
          d="M12.5 24C19.1281 24 24.5 18.6281 24.5 12C24.5 5.37188 19.1281 0 12.5 0C5.87188 0 0.5 5.37188 0.5 12C0.5 18.6281 5.87188 24 12.5 24Z"
          fill="#0052FF"
        />
        <path
          d="M12.5023 7.78125C10.1727 7.78125 8.28359 9.66797 8.28359 12C8.28359 14.332 10.1727 16.2188 12.5023 16.2188C14.5906 16.2188 16.325 14.6953 16.6578 12.7031H20.907C20.5484 17.0344 16.9227 20.4375 12.5 20.4375C7.84062 20.4375 4.0625 16.6594 4.0625 12C4.0625 7.34062 7.84062 3.5625 12.5 3.5625C16.9227 3.5625 20.5484 6.96562 20.907 11.2969H16.6555C16.3203 9.30469 14.5906 7.78125 12.5023 7.78125Z"
          fill="white"
        />
      </g>
      <defs>
        <clipPath id="clip0_1584_4166">
          <rect
            width="24"
            height="24"
            fill="white"
            transform="matrix(1 0 0 -1 0.5 24)"
          />
        </clipPath>
      </defs>
    </svg>
  </symbol>
  <symbol id="frame" viewBox="0 0 26 26">
    <svg
      width="26"
      height="26"
      viewBox="0 0 26 26"
      fill="none"
      xmlns="http://www.w3.org/2000/svg"
    >
      <path
        fill-rule="evenodd"
        clip-rule="evenodd"
        d="M0.955654 0.0789111C0.583331 0.248857 0.351298 0.462491 0.183198 0.790065C0.00926909 1.12909 0 1.41105 0 6.37393V11.6008L0.71674 12.3177L1.43348 13.0346V18.2625C1.43348 24.0588 1.40701 23.8076 2.0709 24.3177L2.42182 24.5873L7.70047 24.6354L12.979 24.6835L13.6809 25.3418L14.3826 26L19.6249 25.9929C24.7504 25.986 24.8743 25.9813 25.1867 25.7869C25.3625 25.6775 25.6052 25.4278 25.7262 25.2321L25.946 24.876L25.973 19.6765L26 14.477L25.304 13.7735L24.6081 13.0701L24.5603 7.67894L24.5125 2.28782L24.0646 1.87961C23.7191 1.56474 23.5139 1.45715 23.1672 1.40932C22.9201 1.37516 20.5261 1.34725 17.8472 1.34725H12.9765L12.2867 0.673625L11.5968 0L6.34784 0.00673696C3.461 0.01049 1.0345 0.0429202 0.955654 0.0789111ZM19.2448 6.69006C19.3845 6.83085 19.3998 7.45116 19.3998 12.9913C19.3998 18.4495 19.383 19.1534 19.2496 19.2877C19.1162 19.422 18.4182 19.4389 13.0084 19.4389C8.2859 19.4389 6.88071 19.4119 6.75466 19.3186C6.60405 19.2072 6.59392 18.7383 6.61695 12.9432L6.64179 6.68813L7.93193 6.64002C8.6415 6.61355 11.4422 6.57891 14.1559 6.56294C18.6038 6.53686 19.105 6.54937 19.2448 6.69006Z"
        fill="#252C32"
      />
    </svg>
  </symbol>
  <symbol id="coin" viewBox="0 0 24 24">
    <svg
      width="24"
      height="24"
      viewBox="0 0 24 24"
      fill="none"
      xmlns="http://www.w3.org/2000/svg"
    >
      <path
        d="M12 24C18.6274 24 24 18.6274 24 12C24 5.37258 18.6274 0 12 0C5.37258 0 0 5.37258 0 12C0 18.6274 5.37258 24 12 24Z"
        fill="#627EEA"
      />
      <path
        d="M12.3735 3V9.6525L17.9963 12.165L12.3735 3Z"
        fill="white"
        fillOpacity="0.602"
      />
      <path
        d="M12.3735 3L6.75 12.165L12.3735 9.6525V3Z"
        fill="white"
      />
      <path
        d="M12.3735 16.4759V20.9962L18 13.2119L12.3735 16.4759Z"
        fill="white"
        fillOpacity="0.602"
      />
      <path
        d="M12.3735 20.9962V16.4752L6.75 13.2119L12.3735 20.9962Z"
        fill="white"
      />
      <path
        d="M12.3735 15.4296L17.9963 12.1648L12.3735 9.65381V15.4296Z"
        fill="white"
        fillOpacity="0.2"
      />
      <path
        d="M6.75 12.1648L12.3735 15.4296V9.65381L6.75 12.1648Z"
        fill="white"
        fillOpacity="0.602"
      />
    </svg>
  </symbol>
  <symbol id="wallet" viewBox="0 0 24 24">
    <svg width="24" height="24" viewBox="0 0 24 24" fill="none" xmlns="http://www.w3.org/2000/svg">
      <rect width="24" height="24" rx="12" fill="white"/>
      <path fill-rule="evenodd" clip-rule="evenodd" d="M7.91663 6.1665C6.95013 6.1665 6.16663 6.95001 6.16663 7.9165V16.0832C6.16663 17.0497 6.95013 17.8332 7.91663 17.8332H16.0833C17.0498 17.8332 17.8333 17.0497 17.8333 16.0832V10.2498C17.8333 9.48788 17.3463 8.83965 16.6666 8.59942V7.9165C16.6666 6.95001 15.8831 6.1665 14.9166 6.1665H7.91663ZM7.91663 7.33317C7.59446 7.33317 7.33329 7.59434 7.33329 7.9165C7.33329 8.23867 7.59446 8.49984 7.91663 8.49984H15.5V7.9165C15.5 7.59434 15.2388 7.33317 14.9166 7.33317H7.91663ZM14.9166 11.9998C14.2723 11.9998 13.75 12.5222 13.75 13.1665C13.75 13.8108 14.2723 14.3332 14.9166 14.3332H16.0833C16.4055 14.3332 16.6666 14.072 16.6666 13.7498V12.5832C16.6666 12.261 16.4055 11.9998 16.0833 11.9998H14.9166Z" fill="#111315"/>
    </svg>
  </symbol>
  <symbol id="snow" viewBox="0 0 10 11">
    <svg width="10" height="11" viewBox="0 0 10 11" fill="none" xmlns="http://www.w3.org/2000/svg">
      <path d="M5.36043 0.777174C5.14585 0.781341 4.97293 0.958424 4.97501 1.17301V2.18551L4.47084 1.67926C4.39585 1.60426 4.29585 1.56051 4.1896 1.56051C4.03126 1.56051 3.88751 1.65634 3.8271 1.80426C3.76668 1.95217 3.8021 2.12092 3.91668 2.23134L4.97501 3.29176V3.95009C4.5521 4.03551 4.18543 4.26259 3.90835 4.57509L3.33126 4.23967L2.94376 2.79384C2.9021 2.62301 2.75001 2.50217 2.57293 2.49801C2.45001 2.49592 2.33126 2.55217 2.25626 2.65009C2.17918 2.74801 2.15418 2.87717 2.1896 2.99592L2.37293 3.68759L1.49793 3.18134C1.44168 3.14801 1.3771 3.12926 1.31251 3.12509C1.29793 3.12509 1.28543 3.12509 1.27293 3.12717C1.10001 3.13759 0.954179 3.26051 0.916679 3.42926C0.877096 3.60009 0.954179 3.77301 1.10626 3.85842L1.98335 4.36467L1.29168 4.55009C1.15418 4.58342 1.04585 4.68967 1.00835 4.82509C0.970846 4.96259 1.01043 5.10842 1.11043 5.20842C1.21251 5.30842 1.35835 5.34384 1.49376 5.30426L2.9396 4.91676L3.51876 5.25217C3.45418 5.44593 3.41043 5.65009 3.41043 5.86676C3.41043 6.08342 3.45418 6.28759 3.51876 6.48134L2.9396 6.81676L1.49376 6.42926C1.45626 6.41676 1.41668 6.41259 1.37918 6.41467C1.18335 6.41884 1.02293 6.56676 1.00001 6.76051C0.97918 6.95426 1.1021 7.13551 1.29168 7.18342L1.98335 7.36884L1.10626 7.87509C0.979179 7.94176 0.900013 8.07301 0.897929 8.21676C0.895846 8.36051 0.972929 8.49176 1.09793 8.56259C1.22293 8.63342 1.3771 8.62926 1.49793 8.55217L2.37293 8.04593L2.1896 8.73759C2.15001 8.87301 2.18751 9.02092 2.28543 9.12092C2.38543 9.22092 2.53126 9.26051 2.66876 9.22301C2.80418 9.18551 2.91043 9.07717 2.94376 8.93967L3.33126 7.49384L3.90835 7.15842C4.18543 7.47092 4.5521 7.69801 4.97501 7.78342V8.44176L3.91668 9.50217C3.8146 9.60009 3.77293 9.74592 3.80835 9.88134C3.84585 10.0188 3.9521 10.1272 4.0896 10.1626C4.2271 10.198 4.37085 10.1563 4.47084 10.0543L4.97501 9.54801V10.5605C4.97293 10.7022 5.04793 10.8313 5.16876 10.9043C5.29168 10.9751 5.44168 10.9751 5.5646 10.9043C5.68543 10.8313 5.76043 10.7022 5.75835 10.5605V9.54801L6.26251 10.0543C6.36251 10.1563 6.50626 10.198 6.64376 10.1626C6.78126 10.1272 6.88751 10.0188 6.92501 9.88134C6.96043 9.74592 6.91876 9.60009 6.81668 9.50217L5.75835 8.44176V7.78342C6.18126 7.69801 6.54793 7.47092 6.82501 7.15842L7.4021 7.49384L7.7896 8.93967C7.82293 9.07717 7.92918 9.18551 8.0646 9.22301C8.2021 9.26051 8.34793 9.22092 8.44793 9.12092C8.54585 9.02092 8.58335 8.87301 8.54376 8.73759L8.36043 8.04593L9.23543 8.55217C9.35626 8.62926 9.51043 8.63342 9.63543 8.56259C9.76043 8.49176 9.83751 8.36051 9.83543 8.21676C9.83335 8.07301 9.75418 7.94176 9.6271 7.87509L8.75001 7.36884L9.44168 7.18342C9.63126 7.13551 9.75626 6.95217 9.73126 6.75634C9.70626 6.56051 9.5396 6.41259 9.34376 6.41467C9.30835 6.41467 9.27293 6.41884 9.2396 6.42926L7.79376 6.81676L7.2146 6.48134C7.27918 6.28759 7.32293 6.08342 7.32293 5.86676C7.32293 5.65009 7.27918 5.44593 7.2146 5.25217L7.79376 4.91676L9.2396 5.30426C9.37501 5.34384 9.52084 5.30842 9.62293 5.20842C9.72293 5.10842 9.76251 4.96259 9.72501 4.82509C9.68751 4.68967 9.57918 4.58342 9.44168 4.55009L8.75001 4.36467L9.6271 3.85842C9.77918 3.77301 9.85626 3.59592 9.8146 3.42509C9.77293 3.25426 9.62293 3.13342 9.44793 3.12717C9.37293 3.12509 9.30001 3.14384 9.23543 3.18134L8.36043 3.68759L8.54376 2.99592C8.5771 2.88134 8.55626 2.75842 8.48543 2.66051C8.41668 2.56467 8.30626 2.50426 8.18751 2.49801C8.17501 2.49801 8.16043 2.49801 8.14793 2.49801C7.9771 2.50842 7.83126 2.62717 7.7896 2.79384L7.4021 4.23967L6.82501 4.57509C6.54793 4.26259 6.18126 4.03551 5.75835 3.95009V3.29176L6.81668 2.23134C6.93335 2.12092 6.96876 1.94801 6.90626 1.80009C6.84376 1.65009 6.69793 1.55634 6.53543 1.55842C6.43335 1.56259 6.33543 1.60426 6.26251 1.67926L5.75835 2.18551V1.17301C5.75835 1.06676 5.71876 0.966758 5.64376 0.891758C5.56876 0.816758 5.46668 0.775091 5.36043 0.777174ZM5.33126 4.69801C5.35418 4.70009 5.37918 4.70009 5.4021 4.69801C5.7896 4.70842 6.1271 4.90426 6.33335 5.20217C6.35001 5.25842 6.3771 5.30842 6.41668 5.35217C6.49376 5.50842 6.5396 5.68134 6.5396 5.86676C6.5396 6.07717 6.47918 6.27092 6.38335 6.44176C6.3771 6.45217 6.37085 6.46259 6.36668 6.47509C6.16668 6.80217 5.81043 7.02301 5.4021 7.03551C5.38751 7.03551 5.37501 7.03551 5.36043 7.03551C5.35001 7.03551 5.34168 7.03551 5.33126 7.03551C4.70001 7.01676 4.19376 6.50217 4.19376 5.86676C4.19376 5.68134 4.2396 5.51051 4.3146 5.35426C4.35418 5.31051 4.38335 5.25842 4.40001 5.20217C4.60418 4.90426 4.94585 4.70842 5.33126 4.69801ZM5.36668 5.47509C5.15001 5.47509 4.97501 5.65009 4.97501 5.86676C4.97501 6.08342 5.15001 6.25842 5.36668 6.25842C5.58335 6.25842 5.75835 6.08342 5.75835 5.86676C5.75835 5.65009 5.58335 5.47509 5.36668 5.47509Z" fill="white"/>
    </svg>
  </symbol>
  <symbol id="users" viewBox="0 0 17 16">  
    <svg width="17" height="16" viewBox="0 0 17 16" fill="none" xmlns="http://www.w3.org/2000/svg">
      <g clip-path="url(#clip0_1832_3071)">
        <path d="M5.45278 1.56396C3.63611 1.56396 2.58611 2.98341 2.58611 4.69452C2.58611 5.26952 2.86111 5.8473 2.86111 5.8473C2.75 5.91119 2.56944 6.11396 2.61389 6.4723C2.7 7.14174 2.98889 7.31119 3.175 7.32508C3.24444 7.95008 3.91667 8.75008 4.15 8.86396V9.90841C3.62778 11.4723 0.5 10.4306 0.5 14.0806H5.19444C5.19444 11.9029 6.16389 10.9445 7.11389 10.4251C6.95556 10.289 6.83056 10.1251 6.75833 9.90841V8.86396C6.95833 8.76674 7.46944 8.17508 7.66111 7.61674C7.49722 7.35563 7.36944 7.02785 7.31667 6.60285C7.27222 6.25008 7.325 5.94452 7.43333 5.68896C7.35 5.40841 7.28056 5.05563 7.28056 4.69452C7.28056 3.96952 7.42778 3.30841 7.69445 2.73341C7.45556 2.49174 7.14444 2.3473 6.75833 2.3473C6.75833 2.3473 6.56389 1.56396 5.45278 1.56396ZM11.1917 1.56674C9.37222 1.56396 8.32222 2.98341 8.32222 4.69452C8.32222 5.26952 8.59722 5.8473 8.59722 5.8473C8.48611 5.91119 8.30555 6.11396 8.35 6.4723C8.43611 7.14174 8.725 7.31119 8.91111 7.32508C8.98056 7.95008 9.65278 8.75008 9.88611 8.86396V9.90841C9.36389 11.4723 6.23611 10.4306 6.23611 14.0806H16.1444C16.1444 10.4306 13.0167 11.4723 12.4944 9.90841V8.86396C12.7278 8.75008 13.4 7.95008 13.4694 7.32508C13.6556 7.31119 13.9444 7.14174 14.0306 6.4723C14.075 6.11396 13.8944 5.91119 13.7833 5.8473C13.7833 5.8473 14.0583 5.32508 14.0583 4.69452C14.0583 3.42785 13.5611 2.3473 12.4944 2.3473C12.4944 2.3473 12.3 1.56674 11.1917 1.56674Z" fill="white"/>
      </g>
      <defs>
        <clipPath id="clip0_1832_3071">
          <rect width="16" height="16" fill="white" transform="translate(0.5)"/>
        </clipPath>
      </defs>
    </svg>
  </symbol>
  <symbol id="refresh" viewBox="0 0 17 16">  
    <svg width="17" height="16" viewBox="0 0 17 16" fill="none" xmlns="http://www.w3.org/2000/svg">
      <g clip-path="url(#clip0_1832_3076)">
        <path d="M8.32222 1.56396C6.775 1.56396 5.35 2.13063 4.25833 3.06396C4.10833 3.18341 4.03611 3.3723 4.06944 3.56119C4.10278 3.75008 4.23333 3.90285 4.41389 3.96674C4.59444 4.02785 4.79444 3.98619 4.93611 3.85563C5.84722 3.07785 7.02778 2.60841 8.32222 2.60841C11.0333 2.60841 13.25 4.66119 13.5111 7.30008H11.9722L14.0583 10.4306L16.1444 7.30008H14.5528C14.2861 4.09452 11.5972 1.56396 8.32222 1.56396ZM2.58611 5.21396L0.5 8.34452H2.09167C2.35833 11.5501 5.04722 14.0806 8.32222 14.0806C9.86944 14.0806 11.2944 13.514 12.3861 12.5806C12.5361 12.4612 12.6083 12.2723 12.575 12.0834C12.5417 11.8945 12.4111 11.7417 12.2306 11.6779C12.05 11.6167 11.85 11.6584 11.7083 11.789C10.7972 12.5667 9.61667 13.0362 8.32222 13.0362C5.61111 13.0362 3.39444 10.9834 3.13333 8.34452H4.67222L2.58611 5.21396Z" fill="white"/>
      </g>
      <defs>
        <clipPath id="clip0_1832_3076">
          <rect width="16" height="16" fill="white" transform="translate(0.5)"/>
        </clipPath>
        </defs>
    </svg>
  </symbol>
  <symbol id="left-ellipse" viewBox="0 0 10 6">
    <svg width="10" height="6" viewBox="0 0 10 6" fill="none" xmlns="http://www.w3.org/2000/svg">
      <path d="M1 3C1 3.94831 1.98083 5 3.57143 5C3.86163 5 4.35991 4.87656 5.03296 4.60425C5.67691 4.34371 6.38039 3.98929 7.04263 3.62424C7.43053 3.41042 7.79857 3.19612 8.12505 3C7.79857 2.80388 7.43053 2.58958 7.04263 2.37576C6.38039 2.01071 5.67691 1.65629 5.03296 1.39575C4.35991 1.12344 3.86163 1 3.57143 1C1.98083 1 1 2.05169 1 3Z" fill="white" stroke="white" stroke-width="2"/>
    </svg>
  </symbol>
  <symbol id="right-ellipse" viewBox="0 0 10 6">
    <svg width="10" height="6" viewBox="0 0 10 6" fill="none" xmlns="http://www.w3.org/2000/svg">
      <path d="M9 3C9 3.94831 8.01917 5 6.42857 5C6.13837 5 5.64009 4.87656 4.96704 4.60425C4.32309 4.34371 3.61961 3.98929 2.95737 3.62424C2.56947 3.41042 2.20143 3.19612 1.87495 3C2.20143 2.80388 2.56947 2.58958 2.95737 2.37576C3.61961 2.01071 4.32309 1.65629 4.96704 1.39575C5.64009 1.12344 6.13837 1 6.42857 1C8.01917 1 9 2.05169 9 3Z" fill="white" stroke="white" stroke-width="2"/>
    </svg>
  </symbol>
  <symbol id="person" viewBox="0 0 24 24">
    <svg width="24" height="24" viewBox="0 0 24 24" fill="none" xmlns="http://www.w3.org/2000/svg">
      <path fill-rule="evenodd" clip-rule="evenodd" d="M12 10C13.6569 10 15 8.65685 15 7C15 5.34315 13.6569 4 12 4C10.3431 4 9 5.34315 9 7C9 8.65685 10.3431 10 12 10ZM12 12C14.7614 12 17 9.76142 17 7C17 4.23858 14.7614 2 12 2C9.23858 2 7 4.23858 7 7C7 9.76142 9.23858 12 12 12Z" fill="white"/>
      <path fill-rule="evenodd" clip-rule="evenodd" d="M9 16C6.79086 16 5 17.7909 5 20V21C5 21.5523 4.55228 22 4 22C3.44772 22 3 21.5523 3 21V20C3 16.6863 5.68629 14 9 14H15C18.3137 14 21 16.6863 21 20V21C21 21.5523 20.5523 22 20 22C19.4477 22 19 21.5523 19 21V20C19 17.7909 17.2091 16 15 16H9Z" fill="white"/>
    </svg>
  </symbol>
  <symbol id="refresh-green" viewBox="0 0 24 20">
    <svg width="24" height="20" viewBox="0 0 24 20" fill="none" xmlns="http://www.w3.org/2000/svg">
      <path d="M11.7333 0.345947C9.4125 0.345947 7.275 1.19595 5.6375 2.59595C5.4125 2.77511 5.30417 3.05845 5.35417 3.34178C5.40417 3.62511 5.6 3.85428 5.87083 3.95011C6.14167 4.04178 6.44167 3.97928 6.65417 3.78345C8.02083 2.61678 9.79167 1.91261 11.7333 1.91261C15.8 1.91261 19.125 4.99178 19.5167 8.95011H17.2083L20.3375 13.6459L23.4667 8.95011H21.0792C20.6792 4.14178 16.6458 0.345947 11.7333 0.345947ZM3.12917 5.82095L0 10.5168H2.3875C2.7875 15.3251 6.82083 19.1209 11.7333 19.1209C14.0542 19.1209 16.1917 18.2709 17.8292 16.8709C18.0542 16.6918 18.1625 16.4084 18.1125 16.1251C18.0625 15.8418 17.8667 15.6126 17.5958 15.5168C17.325 15.4251 17.025 15.4876 16.8125 15.6834C15.4458 16.8501 13.675 17.5543 11.7333 17.5543C7.66667 17.5543 4.34167 14.4751 3.95 10.5168H6.25833L3.12917 5.82095Z" fill="#83BF6E"/>
    </svg>
  </symbol>
</svg>